{
  "accessors": [
    {
      "bufferView": 2,
      "componentType": 5126,
      "count": 2648,
      "max": [
        -4.768218040466309,
        0.8741970062255859,
        1.898028016090393
      ],
      "min": [
        -5.559615135192871,
        -0.8741970062255859,
        1.0722049474716187
      ],
      "type": "VEC3"
    },
    {
      "bufferView": 2,
      "byteOffset": 31776,
      "componentType": 5126,
      "count": 2648,
      "max": [
        0.9995588660240173,
        0.9997938275337219,
        0.9960971474647522
      ],
      "min": [
        -0.9995588660240173,
        -0.9997938275337219,
        -0.5527999401092529
      ],
      "type": "VEC3"
    },
    {
      "bufferView": 1,
      "componentType": 5126,
      "count": 2648,
      "max": [
        0.7493000030517578,
        0.9983109831809998
      ],
      "min": [
        0.001689000055193901,
        0.001689000055193901
      ],
      "type": "VEC2"
    },
    {
      "bufferView": 0,
      "componentType": 5125,
      "count": 13824,
      "type": "SCALAR"
    },
    {
      "bufferView": 2,
      "byteOffset": 63552,
      "componentType": 5126,
      "count": 9837,
      "max": [
        7.990167140960693,
        1.412883996963501,
        1.5917309522628784
      ],
      "min": [
        -3.0653738975524902,
        -1.412883996963501,
        -4.459709167480469
      ],
      "type": "VEC3"
    },
    {
      "bufferView": 2,
      "byteOffset": 181596,
      "componentType": 5126,
      "count": 9837,
      "max": [
        0.9999920129776001,
        0.9986926317214966,
        0.9999994039535522
      ],
      "min": [
        -0.9999932050704956,
        -0.9986926317214966,
        -0.9998572468757629
      ],
      "type": "VEC3"
    },
    {
      "bufferView": 1,
      "byteOffset": 21184,
      "componentType": 5126,
      "count": 9837,
      "max": [
        0.9909989833831787,
        0.9891480207443237
      ],
      "min": [
        0.009000999853014946,
        0.009000999853014946
      ],
      "type": "VEC2"
    },
    {
      "bufferView": 0,
      "byteOffset": 55296,
      "componentType": 5125,
      "count": 41280,
      "type": "SCALAR"
    },
    {
      "bufferView": 2,
      "byteOffset": 299640,
      "componentType": 5126,
      "count": 465,
      "max": [
        -3.907141923904419,
        0.5812280178070068,
        0.6012619733810425
      ],
      "min": [
        -6.052001953125,
        -0.5812280178070068,
        -0.8676080107688904
      ],
      "type": "VEC3"
    },
    {
      "bufferView": 2,
      "byteOffset": 305220,
      "componentType": 5126,
      "count": 465,
      "max": [
        0.6439540386199951,
        0.9998098015785217,
        0.9893137812614441
      ],
      "min": [
        -0.9964911341667175,
        -0.9998098015785217,
        -0.9973681569099426
      ],
      "type": "VEC3"
    },
    {
      "bufferView": 0,
      "byteOffset": 220416,
      "componentType": 5125,
      "count": 2688,
      "type": "SCALAR"
    },
    {
      "bufferView": 2,
      "byteOffset": 310800,
      "componentType": 5126,
      "count": 2048,
      "max": [
        -5.4662251472473145,
        0.8513969779014587,
        1.213541030883789
      ],
      "min": [
        -6.315931797027588,
        -0.8513969779014587,
        -1.0747640132904053
      ],
      "type": "VEC3"
    },
    {
      "bufferView": 2,
      "byteOffset": 335376,
      "componentType": 5126,
      "count": 2048,
      "max": [
        0.9999948740005493,
        0.9999840259552002,
        1.0
      ],
      "min": [
        -0.9999991655349731,
        -0.9999840259552002,
        -1.0
      ],
      "type": "VEC3"
    },
    {
      "bufferView": 1,
      "byteOffset": 99880,
      "componentType": 5126,
      "count": 2048,
      "max": [
        0.875,
        1.0
      ],
      "min": [
        0.375,
        0.5
      ],
      "type": "VEC2"
    },
    {
      "bufferView": 0,
      "byteOffset": 231168,
      "componentType": 5125,
      "count": 12288,
      "type": "SCALAR"
    },
    {
      "bufferView": 2,
      "byteOffset": 359952,
      "componentType": 5126,
      "count": 61705,
      "max": [
        -3.057455062866211,
        2.567563056945801,
        2.5716490745544434
      ],
      "min": [
        -6.199673175811768,
        -2.567563056945801,
        -2.979315996170044
      ],
      "type": "VEC3"
    },
    {
      "bufferView": 2,
      "byteOffset": 1100412,
      "componentType": 5126,
      "count": 61705,
      "max": [
        0.999993085861206,
        0.9999997615814209,
        0.9999964237213135
      ],
      "min": [
        -0.999997615814209,
        -1.0,
        -0.9999878406524658
      ],
      "type": "VEC3"
    },
    {
      "bufferView": 1,
      "byteOffset": 116264,
      "componentType": 5126,
      "count": 61705,
      "max": [
        0.9868329763412476,
        0.9955340027809143
      ],
      "min": [
        0.004466000013053417,
        0.004466000013053417
      ],
      "type": "VEC2"
    },
    {
      "bufferView": 0,
      "byteOffset": 280320,
      "componentType": 5125,
      "count": 343992,
      "type": "SCALAR"
    },
    {
      "bufferView": 2,
      "byteOffset": 1840872,
      "componentType": 5126,
      "count": 1180,
      "max": [
        -5.783339977264404,
        0.6882809996604919,
        1.0302549600601196
      ],
      "min": [
        -6.17268180847168,
        -0.6882809996604919,
        -0.973226010799408
      ],
      "type": "VEC3"
    },
    {
      "bufferView": 2,
      "byteOffset": 1855032,
      "componentType": 5126,
      "count": 1180,
      "max": [
        0.9860939979553223,
        0.9959083795547485,
        0.9960715174674988
      ],
      "min": [
        -0.9981138110160828,
        -0.9959083795547485,
        -0.9900376796722412
      ],
      "type": "VEC3"
    },
    {
      "bufferView": 1,
      "byteOffset": 609904,
      "componentType": 5126,
      "count": 1180,
      "max": [
        0.875,
        1.0
      ],
      "min": [
        0.125,
        0.0
      ],
      "type": "VEC2"
    },
    {
      "bufferView": 0,
      "byteOffset": 1656288,
      "componentType": 5125,
      "count": 6144,
      "type": "SCALAR"
    },
    {
      "bufferView": 2,
      "byteOffset": 1869192,
      "componentType": 5126,
      "count": 1616,
      "max": [
        -4.2429280281066895,
        1.8550950288772583,
        3.7665719985961914
      ],
      "min": [
        -5.834595203399658,
        -1.8550950288772583,
        1.124027967453003
      ],
      "type": "VEC3"
    },
    {
      "bufferView": 2,
      "byteOffset": 1888584,
      "componentType": 5126,
      "count": 1616,
      "max": [
        0.9998521208763123,
        0.996988832950592,
        0.9984250664710999
      ],
      "min": [
        -0.9996461272239685,
        -0.996988832950592,
        -0.9993873834609985
      ],
      "type": "VEC3"
    },
    {
      "bufferView": 1,
      "byteOffset": 619344,
      "componentType": 5126,
      "count": 1616,
      "max": [
        0.875,
        0.625
      ],
      "min": [
        0.125,
        0.125
      ],
      "type": "VEC2"
    },
    {
      "bufferView": 0,
      "byteOffset": 1680864,
      "componentType": 5125,
      "count": 9216,
      "type": "SCALAR"
    },
    {
      "bufferView": 2,
      "byteOffset": 1907976,
      "componentType": 5126,
      "count": 2788,
      "max": [
        0.05691400170326233,
        2.3532330989837646,
        2.1999149322509766
      ],
      "min": [
        -4.40912389755249,
        -2.353231906890869,
        0.4279960095882416
      ],
      "type": "VEC3"
    },
    {
      "bufferView": 2,
      "byteOffset": 1941432,
      "componentType": 5126,
      "count": 2788,
      "max": [
        0.9940086603164673,
        0.9993921518325806,
        0.9992433190345764
      ],
      "min": [
        -0.9991031289100647,
        -0.9998734593391418,
        -0.9999971389770508
      ],
      "type": "VEC3"
    },
    {
      "bufferView": 1,
      "byteOffset": 632272,
      "componentType": 5126,
      "count": 2788,
      "max": [
        1.0,
        1.0131620168685913
      ],
      "min": [
        -0.010266000404953957,
        -0.013162000104784966
      ],
      "type": "VEC2"
    },
    {
      "bufferView": 0,
      "byteOffset": 1717728,
      "componentType": 5125,
      "count": 16158,
      "type": "SCALAR"
    },
    {
      "bufferView": 2,
      "byteOffset": 1974888,
      "componentType": 5126,
      "count": 9537,
      "max": [
        7.910346031188965,
        1.3364050388336182,
        4.095449924468994
      ],
      "min": [
        -2.8829939365386963,
        -1.3364050388336182,
        -4.202733993530273
      ],
      "type": "VEC3"
    },
    {
      "bufferView": 2,
      "byteOffset": 2089332,
      "componentType": 5126,
      "count": 9537,
      "max": [
        1.0,
        1.0,
        0.9999880790710449
      ],
      "min": [
        -1.0,
        -1.0,
        -1.0
      ],
      "type": "VEC3"
    },
    {
      "bufferView": 1,
      "byteOffset": 654576,
      "componentType": 5126,
      "count": 9537,
      "max": [
        1.0,
        1.0241620540618896
      ],
      "min": [
        0.0,
        0.0
      ],
      "type": "VEC2"
    },
    {
      "bufferView": 0,
      "byteOffset": 1782360,
      "componentType": 5125,
      "count": 47808,
      "type": "SCALAR"
    },
    {
      "bufferView": 2,
      "byteOffset": 2203776,
      "componentType": 5126,
      "count": 573,
      "max": [
        -1.870743989944458,
        2.151350975036621,
        1.242414951324463
      ],
      "min": [
        -4.2513909339904785,
        -2.1972849369049072,
        -0.7250049710273743
      ],
      "type": "VEC3"
    },
    {
      "bufferView": 2,
      "byteOffset": 2210652,
      "componentType": 5126,
      "count": 573,
      "max": [
        -0.1451035588979721,
        0.9829017519950867,
        0.7761210799217224
      ],
      "min": [
        -0.6757208704948425,
        -0.9829017519950867,
        -0.5914068818092346
      ],
      "type": "VEC3"
    },
    {
      "bufferView": 1,
      "byteOffset": 730872,
      "componentType": 5126,
      "count": 573,
      "max": [
        1.0,
        0.5
      ],
      "min": [
        1.0,
        0.5
      ],
      "type": "VEC2"
    },
    {
      "bufferView": 0,
      "byteOffset": 1973592,
      "componentType": 5125,
      "count": 3042,
      "type": "SCALAR"
    }
  ],
  "asset": {
    "extras": {
      "author": "stam3D (https://sketchfab.com/stam3D)",
      "license": "CC-BY-4.0 (http://creativecommons.org/licenses/by/4.0/)",
      "source": "https://sketchfab.com/3d-models/gyarados-by-stam-cd4aad0cd73d406fb2140903b5f0e0b0",
      "title": "Gyarados by Stam"
    },
    "generator": "Sketchfab-12.68.0",
    "version": "2.0"
  },
  "bufferViews": [
    {
      "buffer": 0,
      "byteLength": 1985760,
      "name": "floatBufferViews",
      "target": 34963
    },
    {
      "buffer": 0,
      "byteLength": 735456,
      "byteOffset": 1985760,
      "byteStride": 8,
      "name": "floatBufferViews",
      "target": 34962
    },
    {
      "buffer": 0,
      "byteLength": 2217528,
      "byteOffset": 2721216,
      "byteStride": 12,
      "name": "floatBufferViews",
      "target": 34962
    }
  ],
  "buffers": [
    {
      "byteLength": 4938744,
      "uri": "scene.bin"
    }
  ],
  "images": [
    {
      "uri": "textures/Material.001_baseColor.png"
    },
    {
      "uri": "textures/eyes_baseColor.png"
    },
    {
      "uri": "textures/skin_baseColor.png"
    }
  ],
  "materials": [
    {
      "doubleSided": true,
      "name": "Material.001",
      "pbrMetallicRoughness": {
        "baseColorTexture": {
          "index": 0
        },
        "metallicFactor": 0.0,
        "roughnessFactor": 0.4
      }
    },
    {
      "doubleSided": true,
      "name": "Material.002",
      "pbrMetallicRoughness": {
        "baseColorFactor": [
          0.057297834334599035,
          0.3540627080366393,
          1.0,
          1.0
        ],
        "metallicFactor": 0.0,
        "roughnessFactor": 0.4
      }
    },
    {
      "doubleSided": true,
      "name": "Material.005",
      "pbrMetallicRoughness": {
        "baseColorFactor": [
          1.0,
          0.4989574412556487,
          0.18272736393587025,
          1.0
        ],
        "metallicFactor": 0.0,
        "roughnessFactor": 0.4
      }
    },
    {
      "doubleSided": true,
      "name": "Material.006",
      "pbrMetallicRoughness": {
        "baseColorFactor": [
          0.038680994138097946,
          0.17571712440163662,
          0.7409556523337896,
          1.0
        ],
        "metallicFactor": 0.0,
        "roughnessFactor": 0.4
      }
    },
    {
      "doubleSided": true,
      "name": "Material.007",
      "pbrMetallicRoughness": {
        "baseColorFactor": [
          1.0,
          0.882856601006456,
          0.732532985489547,
          1.0
        ],
        "metallicFactor": 0.0,
        "roughnessFactor": 0.6
      }
    },
    {
      "doubleSided": true,
      "name": "Material.008",
      "pbrMetallicRoughness": {
        "baseColorFactor": [
          1.0,
          0.2711979287217833,
          0.36693270212265927,
          1.0
        ],
        "metallicFactor": 0.0,
        "roughnessFactor": 0.4
      }
    },
    {
      "doubleSided": true,
      "name": "eyes",
      "pbrMetallicRoughness": {
        "baseColorTexture": {
          "index": 1
        },
        "metallicFactor": 0.0,
        "roughnessFactor": 0.0
      }
    },
    {
      "doubleSided": true,
      "name": "skin",
      "pbrMetallicRoughness": {
        "baseColorTexture": {
          "index": 2
        },
        "metallicFactor": 0.0,
        "roughnessFactor": 0.4102515243902439
      }
    },
    {
      "doubleSided": true,
      "name": "teeth",
      "pbrMetallicRoughness": {
        "metallicFactor": 0.0,
        "roughnessFactor": 0.4
      }
    }
  ],
  "meshes": [
    {
      "name": "Object_0",
      "primitives": [
        {
          "attributes": {
            "NORMAL": 1,
            "POSITION": 0,
            "TEXCOORD_0": 2
          },
          "indices": 3,
          "material": 6,
          "mode": 4
        }
      ]
    },
    {
      "name": "Object_1",
      "primitives": [
        {
          "attributes": {
            "NORMAL": 5,
            "POSITION": 4,
            "TEXCOORD_0": 6
          },
          "indices": 7,
          "material": 0,
          "mode": 4
        }
      ]
    },
    {
      "name": "Object_2",
      "primitives": [
        {
          "attributes": {
            "NORMAL": 9,
            "POSITION": 8
          },
          "indices": 10,
          "material": 5,
          "mode": 4
        }
      ]
    },
    {
      "name": "Object_3",
      "primitives": [
        {
          "attributes": {
            "NORMAL": 12,
            "POSITION": 11,
            "TEXCOORD_0": 13
          },
          "indices": 14,
          "material": 2,
          "mode": 4
        }
      ]
    },
    {
      "name": "Object_4",
      "primitives": [
        {
          "attributes": {
            "NORMAL": 16,
            "POSITION": 15,
            "TEXCOORD_0": 17
          },
          "indices": 18,
          "material": 7,
          "mode": 4
        }
      ]
    },
    {
      "name": "Object_5",
      "primitives": [
        {
          "attributes": {
            "NORMAL": 20,
            "POSITION": 19,
            "TEXCOORD_0": 21
          },
          "indices": 22,
          "material": 8,
          "mode": 4
        }
      ]
    },
    {
      "name": "Object_6",
      "primitives": [
        {
          "attributes": {
            "NORMAL": 24,
            "POSITION": 23,
            "TEXCOORD_0": 25
          },
          "indices": 26,
          "material": 3,
          "mode": 4
        }
      ]
    },
    {
      "name": "Object_7",
      "primitives": [
        {
          "attributes": {
            "NORMAL": 28,
            "POSITION": 27,
            "TEXCOORD_0": 29
          },
          "indices": 30,
          "material": 1,
          "mode": 4
        }
      ]
    },
    {
      "name": "Object_8",
      "primitives": [
        {
          "attributes": {
            "NORMAL": 32,
            "POSITION": 31,
            "TEXCOORD_0": 33
          },
          "indices": 34,
          "material": 4,
          "mode": 4
        }
      ]
    },
    {
      "name": "Object_9",
      "primitives": [
        {
          "attributes": {
            "NORMAL": 36,
            "POSITION": 35,
            "TEXCOORD_0": 37
          },
          "indices": 38,
          "material": 4,
          "mode": 4
        }
      ]
    }
  ],
  "nodes": [
    {
      "children": [
        1
      ],
      "matrix": [
        0.5970797538757324,
        0.0,
        0.0,
        0.0,
        0.0,
        1.3257833805807194e-16,
        -0.5970797538757324,
        0.0,
        0.0,
        0.5970797538757324,
        1.3257833805807194e-16,
        0.0,
        0.0,
        0.0,
        0.0,
        1.0
      ],
      "name": "Sketchfab_model"
    },
    {
      "children": [
        2,
        3,
        4,
        5,
        6,
        7,
        8,
        9,
        10,
        11
      ],
      "name": "gyarados stam.obj.cleaner.materialmerger.gles"
    },
    {
      "mesh": 0,
      "name": "Object_2"
    },
    {
      "mesh": 1,
      "name": "Object_3"
    },
    {
      "mesh": 2,
      "name": "Object_4"
    },
    {
      "mesh": 3,
      "name": "Object_5"
    },
    {
      "mesh": 4,
      "name": "Object_6"
    },
    {
      "mesh": 5,
      "name": "Object_7"
    },
    {
      "mesh": 6,
      "name": "Object_8"
    },
    {
      "mesh": 7,
      "name": "Object_9"
    },
    {
      "mesh": 8,
      "name": "Object_10"
    },
    {
      "mesh": 9,
      "name": "Object_11"
    }
  ],
  "samplers": [
    {
      "magFilter": 9729,
      "minFilter": 9987,
      "wrapS": 10497,
      "wrapT": 10497
    }
  ],
  "scene": 0,
  "scenes": [
    {
      "name": "Sketchfab_Scene",
      "nodes": [
        0
      ]
    }
  ],
  "textures": [
    {
      "sampler": 0,
      "source": 0
    },
    {
      "sampler": 0,
      "source": 1
    },
    {
      "sampler": 0,
      "source": 2
    }
  ]
}
