{
  "accessors": [
    {
      "bufferView": 2,
      "componentType": 5126,
      "count": 42695,
      "max": [
        4.401040077209473,
        4.063930034637451,
        6.556009769439697
      ],
      "min": [
        -4.401040077209473,
        -4.355909824371338,
        -0.24587999284267426
      ],
      "type": "VEC3"
    },
    {
      "bufferView": 2,
      "byteOffset": 512340,
      "componentType": 5126,
      "count": 42695,
      "max": [
        0.9998794198036194,
        1.0,
        0.9999345541000366
      ],
      "min": [
        -0.9998794198036194,
        -0.9999707341194153,
        -0.9999999403953552
      ],
      "type": "VEC3"
    },
    {
      "bufferView": 1,
      "componentType": 5126,
      "count": 42695,
      "max": [
        0.9996200203895569,
        0.9882500171661377
      ],
      "min": [
        0.00044999999227002263,
        0.0003800000122282654
      ],
      "type": "VEC2"
    },
    {
      "bufferView": 0,
      "componentType": 5125,
      "count": 241920,
      "type": "SCALAR"
    }
  ],
  "asset": {
    "extras": {
      "author": "Katerina Novakova (https://sketchfab.com/KaterinaNovakova)",
      "license": "CC-BY-SA-4.0 (http://creativecommons.org/licenses/by-sa/4.0/)",
      "source": "https://sketchfab.com/3d-models/pokemon-lapras-3d7364edd4e2406d87850524dcd5499b",
      "title": "Pokemon - Lapras"
    },
    "generator": "Sketchfab-12.68.0",
    "version": "2.0"
  },
  "bufferViews": [
    {
      "buffer": 0,
      "byteLength": 967680,
      "name": "floatBufferViews",
      "target": 34963
    },
    {
      "buffer": 0,
      "byteLength": 341560,
      "byteOffset": 967680,
      "byteStride": 8,
      "name": "floatBufferViews",
      "target": 34962
    },
    {
      "buffer": 0,
      "byteLength": 1024680,
      "byteOffset": 1309240,
      "byteStride": 12,
      "name": "floatBufferViews",
      "target": 34962
    }
  ],
  "buffers": [
    {
      "byteLength": 2333920,
      "uri": "scene.bin"
    }
  ],
  "images": [
    {
      "uri": "textures/Body_baseColor.png"
    }
  ],
  "materials": [
    {
      "doubleSided": true,
      "name": "Body",
      "pbrMetallicRoughness": {
        "baseColorTexture": {
          "index": 0
        },
        "metallicFactor": 0.0,
        "roughnessFactor": 0.6
      }
    }
  ],
  "meshes": [
    {
      "name": "Lapras_0",
      "primitives": [
        {
          "attributes": {
            "NORMAL": 1,
            "POSITION": 0,
            "TEXCOORD_0": 2
          },
          "indices": 3,
          "material": 0,
          "mode": 4
        }
      ]
    }
  ],
  "nodes": [
    {
      "children": [
        1
      ],
      "matrix": [
        1.0,
        0.0,
        0.0,
        0.0,
        0.0,
        2.220446049250313e-16,
        -1.0,
        0.0,
        0.0,
        1.0,
        2.220446049250313e-16,
        0.0,
        0.0,
        0.0,
        0.0,
        1.0
      ],
      "name": "Sketchfab_model"
    },
    {
      "children": [
        2,
        4
      ],
      "name": "Root"
    },
    {
      "children": [
        3
      ],
      "matrix": [
        -0.13559000000000002,
        0.90668,
        0.39943000000000006,
        0.0,
        -0.83925,
        -0.3193800000000001,
        0.44006000000000006,
        0.0,
        0.52657,
        -0.27555,
        0.8042400000000001,
        0.0,
        4.076250000000001,
        -10.48742,
        19.275789999999997,
        1.0
      ],
      "name": "Sun"
    },
    {
      "name": "Sun"
    },
    {
      "children": [
        5
      ],
      "name": "Lapras"
    },
    {
      "mesh": 0,
      "name": "Lapras_0"
    }
  ],
  "samplers": [
    {
      "magFilter": 9729,
      "minFilter": 9729,
      "wrapS": 10497,
      "wrapT": 10497
    }
  ],
  "scene": 0,
  "scenes": [
    {
      "name": "Sketchfab_Scene",
      "nodes": [
        0
      ]
    }
  ],
  "textures": [
    {
      "sampler": 0,
      "source": 0
    }
  ]
}
