{
  "accessors": [
    {
      "bufferView": 2,
      "componentType": 5126,
      "count": 5029,
      "max": [
        65.24729919433594,
        41.40909957885742,
        60.03179931640625
      ],
      "min": [
        0.0,
        0.0,
        0.0
      ],
      "type": "VEC3"
    },
    {
      "bufferView": 2,
      "byteOffset": 60348,
      "componentType": 5126,
      "count": 5029,
      "max": [
        1.0,
        0.9995715022087097,
        0.9964513778686523
      ],
      "min": [
        -1.0,
        -0.9995553493499756,
        -0.998439371585846
      ],
      "type": "VEC3"
    },
    {
      "bufferView": 3,
      "componentType": 5126,
      "count": 5029,
      "max": [
        1.0,
        0.9999488592147827,
        1.0,
        1.0
      ],
      "min": [
        -1.0,
        -0.9999926090240479,
        -1.0,
        -1.0
      ],
      "type": "VEC4"
    },
    {
      "bufferView": 1,
      "componentType": 5126,
      "count": 5029,
      "max": [
        0.9886379837989807,
        0.9950000047683716
      ],
      "min": [
        0.004999999888241291,
        0.004999999888241291
      ],
      "type": "VEC2"
    },
    {
      "bufferView": 0,
      "componentType": 5125,
      "count": 23250,
      "type": "SCALAR"
    }
  ],
  "asset": {
    "extras": {
      "author": "germydan (https://sketchfab.com/germydan)",
      "license": "CC-BY-4.0 (http://creativecommons.org/licenses/by/4.0/)",
      "source": "https://sketchfab.com/3d-models/mew-pokemon-4c9dfbb590744368a05f1bed1fbf8d3e",
      "title": "Mew Pokémon"
    },
    "generator": "Sketchfab-12.68.0",
    "version": "2.0"
  },
  "bufferViews": [
    {
      "buffer": 0,
      "byteLength": 93000,
      "name": "floatBufferViews",
      "target": 34963
    },
    {
      "buffer": 0,
      "byteLength": 40232,
      "byteOffset": 93000,
      "byteStride": 8,
      "name": "floatBufferViews",
      "target": 34962
    },
    {
      "buffer": 0,
      "byteLength": 120696,
      "byteOffset": 133232,
      "byteStride": 12,
      "name": "floatBufferViews",
      "target": 34962
    },
    {
      "buffer": 0,
      "byteLength": 80464,
      "byteOffset": 253928,
      "byteStride": 16,
      "name": "floatBufferViews",
      "target": 34962
    }
  ],
  "buffers": [
    {
      "byteLength": 334392,
      "uri": "scene.bin"
    }
  ],
  "images": [
    {
      "uri": "textures/wire_228153184_baseColor.jpeg"
    },
    {
      "uri": "textures/wire_228153184_metallicRoughness.png"
    },
    {
      "uri": "textures/wire_228153184_normal.png"
    }
  ],
  "materials": [
    {
      "doubleSided": true,
      "name": "wire_228153184",
      "normalTexture": {
        "index": 2
      },
      "pbrMetallicRoughness": {
        "baseColorTexture": {
          "index": 0
        },
        "metallicRoughnessTexture": {
          "index": 1
        }
      }
    }
  ],
  "meshes": [
    {
      "name": "Object_0",
      "primitives": [
        {
          "attributes": {
            "NORMAL": 1,
            "POSITION": 0,
            "TANGENT": 2,
            "TEXCOORD_0": 3
          },
          "indices": 4,
          "material": 0,
          "mode": 4
        }
      ]
    }
  ],
  "nodes": [
    {
      "children": [
        1
      ],
      "matrix": [
        1.0,
        0.0,
        0.0,
        0.0,
        0.0,
        2.220446049250313e-16,
        -1.0,
        0.0,
        0.0,
        1.0,
        2.220446049250313e-16,
        0.0,
        0.0,
        0.0,
        0.0,
        1.0
      ],
      "name": "Sketchfab_model"
    },
    {
      "children": [
        2
      ],
      "matrix": [
        1.0,
        0.0,
        0.0,
        0.0,
        0.0,
        1.0,
        0.0,
        0.0,
        0.0,
        0.0,
        1.0,
        0.0,
        -32.25239944458008,
        -63.74589920043945,
        -29.644399642944336,
        1.0
      ],
      "name": "finalOBJ.obj.cleaner.gles"
    },
    {
      "mesh": 0,
      "name": "Object_2"
    }
  ],
  "samplers": [
    {
      "magFilter": 9729,
      "minFilter": 9987,
      "wrapS": 10497,
      "wrapT": 10497
    }
  ],
  "scene": 0,
  "scenes": [
    {
      "name": "Sketchfab_Scene",
      "nodes": [
        0
      ]
    }
  ],
  "textures": [
    {
      "sampler": 0,
      "source": 0
    },
    {
      "sampler": 0,
      "source": 1
    },
    {
      "sampler": 0,
      "source": 2
    }
  ]
}
