{
  "accessors": [
    {
      "bufferView": 2,
      "componentType": 5126,
      "count": 282,
      "max": [
        6.059988975524902,
        -28.313400268554688,
        47.79679870605469
      ],
      "min": [
        -6.059988975524902,
        -35.445899963378906,
        42.23040008544922
      ],
      "type": "VEC3"
    },
    {
      "bufferView": 2,
      "byteOffset": 3384,
      "componentType": 5126,
      "count": 282,
      "max": [
        0.6140389442443848,
        -0.11354100704193115,
        0.4576381742954254
      ],
      "min": [
        -0.6140280961990356,
        -0.9996580481529236,
        -0.9905441403388977
      ],
      "type": "VEC3"
    },
    {
      "bufferView": 1,
      "componentType": 5126,
      "count": 282,
      "max": [
        1.0,
        0.1953125
      ],
      "min": [
        0.904296875,
        0.099609375
      ],
      "type": "VEC2"
    },
    {
      "bufferView": 1,
      "byteOffset": 2256,
      "componentType": 5126,
      "count": 282,
      "max": [
        1.0,
        0.1953125
      ],
      "min": [
        0.904296875,
        0.099609375
      ],
      "type": "VEC2"
    },
    {
      "bufferView": 1,
      "byteOffset": 4512,
      "componentType": 5126,
      "count": 282,
      "max": [
        1.0,
        0.1953125
      ],
      "min": [
        0.904296875,
        0.099609375
      ],
      "type": "VEC2"
    },
    {
      "bufferView": 0,
      "componentType": 5125,
      "count": 282,
      "type": "SCALAR"
    },
    {
      "bufferView": 2,
      "byteOffset": 6768,
      "componentType": 5126,
      "count": 13467,
      "max": [
        31.243999481201172,
        86.3345947265625,
        80.75470733642578
      ],
      "min": [
        -31.24399757385254,
        -38.248600006103516,
        -0.07667899876832962
      ],
      "type": "VEC3"
    },
    {
      "bufferView": 2,
      "byteOffset": 168372,
      "componentType": 5126,
      "count": 13467,
      "max": [
        0.9989294409751892,
        1.0,
        0.9999988675117493
      ],
      "min": [
        -0.9989294409751892,
        -0.9999931454658508,
        -0.9999988675117493
      ],
      "type": "VEC3"
    },
    {
      "bufferView": 1,
      "byteOffset": 6768,
      "componentType": 5126,
      "count": 13467,
      "max": [
        0.90234375,
        0.90234375
      ],
      "min": [
        0.001953125,
        0.001953125
      ],
      "type": "VEC2"
    },
    {
      "bufferView": 1,
      "byteOffset": 114504,
      "componentType": 5126,
      "count": 13467,
      "max": [
        0.90234375,
        0.90234375
      ],
      "min": [
        0.001953125,
        0.001953125
      ],
      "type": "VEC2"
    },
    {
      "bufferView": 1,
      "byteOffset": 222240,
      "componentType": 5126,
      "count": 13467,
      "max": [
        0.90234375,
        0.90234375
      ],
      "min": [
        0.001953125,
        0.001953125
      ],
      "type": "VEC2"
    },
    {
      "bufferView": 0,
      "byteOffset": 1128,
      "componentType": 5125,
      "count": 13530,
      "type": "SCALAR"
    },
    {
      "bufferView": 2,
      "byteOffset": 329976,
      "componentType": 5126,
      "count": 342,
      "max": [
        9.62062931060791,
        -26.170001983642578,
        55.393001556396484
      ],
      "min": [
        -9.621028900146484,
        -34.92579650878906,
        47.395999908447266
      ],
      "type": "VEC3"
    },
    {
      "bufferView": 2,
      "byteOffset": 334080,
      "componentType": 5126,
      "count": 342,
      "max": [
        0.9757561683654785,
        -0.12298276275396347,
        0.4576381742954254
      ],
      "min": [
        -0.9757542014122009,
        -0.9939741492271423,
        -0.6493150591850281
      ],
      "type": "VEC3"
    },
    {
      "bufferView": 1,
      "byteOffset": 329976,
      "componentType": 5126,
      "count": 342,
      "max": [
        1.0,
        0.09765625
      ],
      "min": [
        0.904296875,
        0.001953125
      ],
      "type": "VEC2"
    },
    {
      "bufferView": 1,
      "byteOffset": 332712,
      "componentType": 5126,
      "count": 342,
      "max": [
        1.0,
        0.09765625
      ],
      "min": [
        0.904296875,
        0.001953125
      ],
      "type": "VEC2"
    },
    {
      "bufferView": 1,
      "byteOffset": 335448,
      "componentType": 5126,
      "count": 342,
      "max": [
        1.0,
        0.09765625
      ],
      "min": [
        0.904296875,
        0.001953125
      ],
      "type": "VEC2"
    },
    {
      "bufferView": 0,
      "byteOffset": 55248,
      "componentType": 5125,
      "count": 342,
      "type": "SCALAR"
    }
  ],
  "asset": {
    "extras": {
      "author": "hkgiao79 (https://sketchfab.com/hkgiao79)",
      "license": "CC-BY-4.0 (http://creativecommons.org/licenses/by/4.0/)",
      "source": "https://sketchfab.com/3d-models/glaceon-3d-render-b6d07fdd0771491aad1c84a4c5bd52ea",
      "title": "Glaceon 3D Render"
    },
    "generator": "Sketchfab-12.66.0",
    "version": "2.0"
  },
  "bufferViews": [
    {
      "buffer": 0,
      "byteLength": 56616,
      "name": "floatBufferViews",
      "target": 34963
    },
    {
      "buffer": 0,
      "byteLength": 338184,
      "byteOffset": 56616,
      "byteStride": 8,
      "name": "floatBufferViews",
      "target": 34962
    },
    {
      "buffer": 0,
      "byteLength": 338184,
      "byteOffset": 394800,
      "byteStride": 12,
      "name": "floatBufferViews",
      "target": 34962
    }
  ],
  "buffers": [
    {
      "byteLength": 732984,
      "uri": "scene.bin"
    }
  ],
  "extensionsRequired": [
    "KHR_materials_pbrSpecularGlossiness"
  ],
  "extensionsUsed": [
    "KHR_materials_pbrSpecularGlossiness"
  ],
  "images": [
    {
      "uri": "textures/material_0_diffuse.png"
    },
    {
      "uri": "textures/material_0_specularGlossiness.png"
    }
  ],
  "materials": [
    {
      "doubleSided": true,
      "extensions": {
        "KHR_materials_pbrSpecularGlossiness": {
          "diffuseFactor": [
            1.0,
            1.0,
            1.0,
            1.0
          ],
          "diffuseTexture": {
            "index": 0
          },
          "glossinessFactor": 1.0,
          "specularFactor": [
            1.0,
            1.0,
            1.0
          ],
          "specularGlossinessTexture": {
            "index": 1
          }
        }
      },
      "name": "material_0"
    }
  ],
  "meshes": [
    {
      "name": "Object_0",
      "primitives": [
        {
          "attributes": {
            "NORMAL": 1,
            "POSITION": 0,
            "TEXCOORD_0": 2,
            "TEXCOORD_1": 3,
            "TEXCOORD_2": 4
          },
          "indices": 5,
          "material": 0,
          "mode": 4
        }
      ]
    },
    {
      "name": "Object_1",
      "primitives": [
        {
          "attributes": {
            "NORMAL": 7,
            "POSITION": 6,
            "TEXCOORD_0": 8,
            "TEXCOORD_1": 9,
            "TEXCOORD_2": 10
          },
          "indices": 11,
          "material": 0,
          "mode": 4
        }
      ]
    },
    {
      "name": "Object_2",
      "primitives": [
        {
          "attributes": {
            "NORMAL": 13,
            "POSITION": 12,
            "TEXCOORD_0": 14,
            "TEXCOORD_1": 15,
            "TEXCOORD_2": 16
          },
          "indices": 17,
          "material": 0,
          "mode": 4
        }
      ]
    }
  ],
  "nodes": [
    {
      "children": [
        1
      ],
      "matrix": [
        1.0,
        0.0,
        0.0,
        0.0,
        0.0,
        2.220446049250313e-16,
        -1.0,
        0.0,
        0.0,
        1.0,
        2.220446049250313e-16,
        0.0,
        0.0,
        0.0,
        0.0,
        1.0
      ],
      "name": "Sketchfab_model"
    },
    {
      "children": [
        2
      ],
      "name": "root"
    },
    {
      "children": [
        3
      ],
      "matrix": [
        1.0,
        0.0,
        0.0,
        0.0,
        0.0,
        2.220446049250313e-16,
        1.0,
        0.0,
        0.0,
        -1.0,
        2.220446049250313e-16,
        0.0,
        0.0,
        0.0,
        0.0,
        1.0
      ],
      "name": "GLTF_SceneRootNode"
    },
    {
      "children": [
        4
      ],
      "name": "root_0"
    },
    {
      "children": [
        5
      ],
      "matrix": [
        84.42446899414063,
        0.0,
        0.0,
        0.0,
        0.0,
        84.42446899414063,
        0.0,
        0.0,
        0.0,
        0.0,
        84.42446899414063,
        0.0,
        -3.1545638323748904e-10,
        7.450581124279765e-11,
        136.57498168945313,
        1.0
      ],
      "name": "node_id28_1"
    },
    {
      "children": [
        6,
        8,
        10
      ],
      "matrix": [
        1.0,
        0.0,
        0.0,
        0.0,
        0.0,
        1.0,
        0.0,
        0.0,
        0.0,
        0.0,
        1.0,
        0.0,
        -2.4223327343975143e-08,
        -1.024610996246338,
        0.6106921434402466,
        1.0
      ],
      "name": "node_id29_2"
    },
    {
      "children": [
        7
      ],
      "matrix": [
        0.02539999969303608,
        -0.0,
        0.0,
        0.0,
        0.0,
        4.282119516290986e-09,
        -0.025399997830390566,
        0.0,
        0.0,
        0.025399997830390566,
        4.282119516290986e-09,
        0.0,
        0.0,
        0.0,
        0.0,
        1.0
      ],
      "name": "_3"
    },
    {
      "mesh": 0,
      "name": "Object_7"
    },
    {
      "children": [
        9
      ],
      "matrix": [
        0.02539999969303608,
        -0.0,
        0.0,
        0.0,
        0.0,
        4.282119516290986e-09,
        -0.025399997830390566,
        0.0,
        0.0,
        0.025399997830390566,
        4.282119516290986e-09,
        0.0,
        0.0,
        0.0,
        0.0,
        1.0
      ],
      "name": "_4"
    },
    {
      "mesh": 1,
      "name": "Object_9"
    },
    {
      "children": [
        11
      ],
      "matrix": [
        0.02539999969303608,
        -0.0,
        0.0,
        0.0,
        0.0,
        4.282119516290986e-09,
        -0.025399997830390566,
        0.0,
        0.0,
        0.025399997830390566,
        4.282119516290986e-09,
        0.0,
        0.0,
        0.0,
        0.0,
        1.0
      ],
      "name": "_5"
    },
    {
      "mesh": 2,
      "name": "Object_11"
    }
  ],
  "samplers": [
    {
      "magFilter": 9729,
      "minFilter": 9987,
      "wrapS": 10497,
      "wrapT": 10497
    }
  ],
  "scene": 0,
  "scenes": [
    {
      "name": "Sketchfab_Scene",
      "nodes": [
        0
      ]
    }
  ],
  "textures": [
    {
      "sampler": 0,
      "source": 0
    },
    {
      "sampler": 0,
      "source": 1
    }
  ]
}
